<svg xmlns="http://www.w3.org/2000/svg" xmlns:xlink="http://www.w3.org/1999/xlink"><symbol id="checkbox" viewBox="0 0 9 5"><g fill="none">
<path d="M0.978027 1.79058L3.75767 4.22868L7.92714 0.571533" stroke="white"/>
</g></symbol><symbol id="chevron-right" viewBox="0 0 5 10"><g fill="none">
<path d="M0.476196 8.80957L4.28572 5.00005L0.476196 1.19052" stroke="white" stroke-linejoin="round"/>
</g></symbol><symbol id="email-icon" viewBox="0 0 20 20"><g fill="none">
<path d="M17.5584 0H2.44568C1.09663 0 0 1.441 0 3.2137V16.7863C0 18.559 1.09663 20 2.44568 20H17.5543C18.9034 20 20 18.559 20 16.7863V3.21914C20.0041 1.44644 18.9075 0 17.5584 0ZM18.8868 16.7863C18.8868 17.7488 18.2909 18.5318 17.5584 18.5318H2.44568C1.71322 18.5318 1.11732 17.7488 1.11732 16.7863V3.21914C1.11732 2.25666 1.71322 1.47363 2.44568 1.47363H17.5543C18.2868 1.47363 18.8827 2.25666 18.8827 3.21914V16.7863H18.8868Z" fill="#00B2FF"/>
<path d="M12.6133 9.83144L17.5046 4.06744C17.7322 3.79555 17.7529 3.33334 17.546 3.02883C17.3391 2.72975 16.9873 2.70256 16.7556 2.97445L10.0103 10.9299L8.69436 9.38554C8.69023 9.38011 8.68609 9.37467 8.68609 9.36923C8.65712 9.33117 8.62815 9.29854 8.59505 9.26591L3.2402 2.96901C3.00846 2.69713 2.65671 2.72431 2.4498 3.02883C2.24289 3.33334 2.26358 3.79555 2.49532 4.06744L7.44462 9.88038L2.51601 15.9435C2.29255 16.2208 2.28013 16.683 2.49118 16.9821C2.60291 17.1343 2.75189 17.2159 2.90086 17.2159C3.03743 17.2159 3.17399 17.1506 3.28158 17.0201L8.28468 10.87L9.64201 12.4633C9.74961 12.5884 9.88203 12.6482 10.0145 12.6482C10.1469 12.6482 10.2834 12.5829 10.3869 12.4579L11.7815 10.8157L16.7556 17.0256C16.8632 17.1615 17.0039 17.2268 17.1405 17.2268C17.2894 17.2268 17.4343 17.1506 17.546 16.9984C17.7571 16.7047 17.7488 16.2371 17.5253 15.9598L12.6133 9.83144Z" fill="#00B2FF"/>
</g></symbol><symbol id="icon-close-popup" viewBox="0 0 20 20"><g fill="none">
<path fill-rule="evenodd" clip-rule="evenodd" d="M0.177086 1.03109C-0.0587882 0.795211 -0.0587881 0.412781 0.177087 0.176905C0.412961 -0.0589705 0.79539 -0.0589706 1.03126 0.176905L10.0001 9.14577L18.9689 0.17691C19.2048 -0.0589653 19.5872 -0.0589653 19.8231 0.176911C20.059 0.412786 20.059 0.795217 19.8231 1.03109L10.8543 9.99996L19.8232 18.9689C20.0591 19.2048 20.0591 19.5872 19.8232 19.8231C19.5873 20.059 19.2049 20.059 18.969 19.8231L10.0001 10.8541L1.03118 19.8231C0.795303 20.059 0.412874 20.059 0.176999 19.8231C-0.0588753 19.5872 -0.0588755 19.2048 0.176999 18.9689L9.14592 9.99996L0.177086 1.03109Z" fill="white"/>
</g></symbol><symbol id="icon-close" viewBox="0 0 20 20"><g fill="none"><path d="M.293 18.291a1 1 0 101.414 1.414L10 11.413l8.292 8.292a1 1 0 101.414-1.414l-8.292-8.292 8.292-8.292A1 1 0 1018.291.293L9.999 8.585 1.707.293A1 1 0 10.293 1.707L8.585 10 .293 18.291z"/></g></symbol><symbol id="icon-ok" viewBox="0 0 30 30"><g fill="none">
<path d="M15.171 12.6428C16.3282 12.6428 17.2282 11.6785 17.2067 10.6285C17.2282 9.57849 16.3496 8.59277 15.1924 8.59277C14.0782 8.59277 13.1567 9.49277 13.1567 10.6071C13.1567 11.7213 14.0567 12.6428 15.171 12.6428Z" fill="#F8FDFF"/>
<path d="M15 0C6.72856 0 0 6.72857 0 15C0 23.2929 6.72856 30 15 30C23.2928 30 29.9999 23.2714 29.9999 15C30.0214 6.72857 23.2928 0 15 0ZM15.2143 5.67857C17.9143 5.67857 20.1428 7.90714 20.1214 10.6286C20.1214 13.3714 17.8714 15.5786 15.1285 15.5357C12.4285 15.4929 10.2643 13.2857 10.2643 10.6071C10.2643 7.88571 12.4714 5.67857 15.2143 5.67857ZM20.7214 17.25C20.7214 17.2929 20.7 17.3143 20.7 17.3571C20.6357 17.7857 20.4214 18.1286 20.0571 18.3643C19.8214 18.5143 19.5643 18.6643 19.3071 18.7929C18.6643 19.1143 17.9785 19.3714 17.2714 19.5429C17.1857 19.5643 17.1857 19.5643 17.25 19.6286C17.6357 20.0143 18.0428 20.4214 18.4285 20.8071C18.9214 21.3 19.4357 21.8143 19.9285 22.3071C20.6357 23.0143 20.4428 24.1929 19.5428 24.6214C19.3928 24.7071 19.2214 24.7286 19.05 24.7714C18.9643 24.7714 18.8571 24.7714 18.7714 24.7714C18.75 24.7714 18.7285 24.7714 18.7285 24.75C18.3857 24.7071 18.1071 24.5357 17.85 24.3C16.9928 23.4429 16.1143 22.5643 15.2571 21.7071C15.1928 21.6429 15.1928 21.6429 15.1285 21.7071C14.25 22.5857 13.3928 23.4429 12.5143 24.3214C12.3643 24.4714 12.2143 24.5786 12.0214 24.6643C11.8928 24.7286 11.7428 24.75 11.6143 24.7714C11.5286 24.7714 11.4428 24.7714 11.3357 24.7714C11.2928 24.7714 11.2714 24.75 11.2286 24.75C10.65 24.6429 10.2643 24.3214 10.0928 23.7643C9.92141 23.2071 10.05 22.7143 10.4571 22.3071C10.8214 21.9429 11.1643 21.6 11.5286 21.2357C12.0643 20.7 12.6 20.1643 13.1143 19.65C13.1785 19.5857 13.1785 19.5857 13.0928 19.5643C13.0714 19.5643 13.0285 19.5429 13.0071 19.5429C12.0428 19.3071 11.1643 18.9214 10.3286 18.4071C9.8357 18.0857 9.59998 17.6143 9.66427 17.0357C9.77141 15.9643 10.9714 15.3857 11.8714 15.9643C12.0428 16.0714 12.1928 16.1571 12.3857 16.2429C13.3714 16.7357 14.4214 16.95 15.5143 16.8857C16.05 16.8643 16.5857 16.7571 17.1214 16.5857C17.6357 16.4143 18.0857 16.1786 18.5571 15.9214C19.3285 15.4714 20.3357 15.8357 20.6357 16.6714C20.6785 16.8 20.7 16.9071 20.7214 17.0357C20.7214 17.1 20.7214 17.1643 20.7214 17.25Z" fill="#F8FDFF"/>
</g></symbol><symbol id="icon-pinterest" viewBox="0 0 30 30"><g fill="none">
<path d="M14.9999 0C23.2847 0 30 6.71625 30 15.0001C30 23.2848 23.2847 30 14.9999 30C6.71522 30 0 23.2847 0 15.0001C0 6.71625 6.71532 0 14.9999 0Z" fill="#F8FDFF"/>
<path d="M15 5C9.4823 5 5 9.4823 5 15C5 20.5177 9.4823 25 15 25C20.5177 25 25 20.5177 25 15C25 9.4823 20.5177 5 15 5ZM15 5.86957C20.0477 5.86957 24.1304 9.95225 24.1304 15C24.1304 20.0477 20.0477 24.1304 15 24.1304C14.0767 24.1304 13.186 23.9922 12.3463 23.7381C12.7203 23.1128 13.2032 22.219 13.395 21.481C13.509 21.0434 13.9776 19.2587 13.9776 19.2587C14.2821 19.84 15.1719 20.332 16.1192 20.332C18.9383 20.332 20.9706 17.7394 20.9706 14.5177C20.9706 11.4289 18.4502 9.11855 15.2072 9.11855C11.1725 9.11855 9.03108 11.8264 9.03108 14.775C9.03108 16.1462 9.7604 17.8531 10.9282 18.3967C11.105 18.4791 11.2 18.4434 11.2407 18.2719C11.2719 18.1418 11.4297 17.5073 11.5005 17.2121C11.5232 17.1179 11.5122 17.0365 11.436 16.9438C11.0495 16.475 10.7396 15.6138 10.7396 14.8106C10.7396 12.7487 12.3006 10.7532 14.9601 10.7532C17.2564 10.7532 18.8646 12.3186 18.8646 14.5567C18.8646 17.0853 17.5879 18.8375 15.9265 18.8375C15.0089 18.8375 14.3219 18.0784 14.5423 17.1476C14.8065 16.0366 15.3167 14.8378 15.3167 14.0353C15.3167 13.3177 14.9316 12.7191 14.1338 12.7191C13.1958 12.7191 12.4423 13.6889 12.4423 14.989C12.4423 15.8162 12.7225 16.3765 12.7225 16.3765C12.7225 16.3765 11.7959 20.2941 11.6262 21.0233C11.4561 21.7519 11.5017 22.7332 11.5718 23.4638C8.22658 22.1098 5.86957 18.8345 5.86957 15C5.86957 9.95225 9.95225 5.86957 15 5.86957Z" fill="#041827"/>
</g></symbol><symbol id="icon-vk" viewBox="0 0 30 30"><g fill="none">
<path d="M21.617 17.4544C20.3818 16.2726 20.2935 16.2726 21.3523 14.9091C22.6758 13.1819 24.4405 11.0002 22.8523 11.0002H19.9406C19.4112 11.0002 19.323 11.3638 19.1465 11.8184C18.4406 13.5455 17.0289 15.8181 16.4995 15.4545C15.9701 15.0909 16.2348 13.7273 16.2348 11.5457C16.323 11.2729 16.2348 11.0002 16.0583 10.8184C15.8819 10.6366 15.6172 10.4548 15.3525 10.4548C14.9113 10.3639 14.4702 10.273 14.029 10.273C12.3526 10.273 11.2056 11.0002 11.8232 11.0911C12.9702 11.2729 12.882 13.8182 12.6173 14.9091C12.1761 16.8181 10.4115 13.4546 9.61736 11.7275C9.52913 11.2729 9.1762 11.0002 8.73504 11.0002H6.44099C6.08806 11.0002 5.82336 11.0911 5.82336 11.3638C5.82336 11.8184 8.02917 16.2726 10.0585 18.5452C12.0879 20.7269 14.1172 20.5451 15.529 20.5451C15.7054 20.5451 15.8819 20.4542 15.9701 20.3633C16.0583 20.2724 16.1466 20.0906 16.1466 19.9088C16.1466 18.4543 16.676 17.7271 17.6465 18.727C18.7053 19.8179 18.97 20.5451 20.2935 20.5451H22.6758C23.2934 20.5451 23.4699 20.3633 23.4699 20.0906C23.5581 19.4543 22.4993 18.2725 21.617 17.4544ZM15.3525 0.000910576C23.5581 0.182718 30.0873 7.00048 29.9991 15.2727C29.9109 23.5449 23.117 30.09 14.9113 29.9991C6.61745 29.9082 0 23.2722 0 15C0.0882327 6.63687 6.97038 -0.0899929 15.3525 0.000910576Z" fill="#F8FDFF"/>
</g></symbol><symbol id="main-logo" viewBox="0 0 55 55"><g fill="none">
<path d="M33.9167 14.6664C35.1102 14.6664 36.1185 15.4355 36.498 16.4997H46.002C46.3815 15.4355 47.3899 14.6664 48.5834 14.6664C50.0995 14.6664 51.3334 15.9002 51.3334 17.4164C51.3334 18.9325 50.0995 20.1663 48.5834 20.1663C47.3899 20.1663 46.3815 19.3973 46.002 18.333H36.4971C36.1176 19.3973 35.1093 20.1663 33.9158 20.1663C32.3996 20.1663 31.1658 18.9325 31.1658 17.4164C31.1658 15.9002 32.4005 14.6664 33.9167 14.6664ZM48.5834 18.333C49.0884 18.333 49.5 17.9224 49.5 17.4164C49.5 16.9104 49.0884 16.4997 48.5834 16.4997C48.0783 16.4997 47.6667 16.9104 47.6667 17.4164C47.6667 17.9224 48.0783 18.333 48.5834 18.333ZM33.9167 18.333C34.4218 18.333 34.8334 17.9224 34.8334 17.4164C34.8334 16.9104 34.4218 16.4997 33.9167 16.4997C33.4116 16.4997 33 16.9104 33 17.4164C33 17.9224 33.4116 18.333 33.9167 18.333Z" fill="#00B2FF"/>
<path d="M26.5834 20.335V14.6664C26.5834 14.4226 26.6796 14.1898 26.8519 14.0184L30.5186 10.3517C30.69 10.1794 30.9238 10.0832 31.1667 10.0832H34.0854C34.4649 9.01893 35.4732 8.24986 36.6667 8.24986C38.1829 8.24986 39.4167 9.48368 39.4167 10.9998C39.4167 12.516 38.1829 13.7498 36.6667 13.7498C35.4732 13.7498 34.4649 12.9807 34.0854 11.9165H31.5462L28.4167 15.0459V20.335C29.4809 20.7145 30.25 21.7228 30.25 22.9163C30.25 24.4324 29.0162 25.6662 27.5 25.6662C25.9839 25.6662 24.75 24.4324 24.75 22.9163C24.75 21.7228 25.5191 20.7145 26.5834 20.335ZM36.6667 11.9165C37.1718 11.9165 37.5834 11.5058 37.5834 10.9998C37.5834 10.4938 37.1718 10.0832 36.6667 10.0832C36.1616 10.0832 35.75 10.4938 35.75 10.9998C35.75 11.5058 36.1616 11.9165 36.6667 11.9165ZM27.5 23.8329C28.0051 23.8329 28.4167 23.4223 28.4167 22.9163C28.4167 22.4103 28.0051 21.9996 27.5 21.9996C26.9949 21.9996 26.5834 22.4103 26.5834 22.9163C26.5834 23.4223 26.9949 23.8329 27.5 23.8329Z" fill="#00B2FF"/>
<path d="M10.0833 23.8329C10.5068 23.8329 10.9028 23.9365 11.2613 24.1089L12.8333 22.5368V13.7498C12.8333 13.5059 12.9296 13.2731 13.1019 13.1017L22.2759 3.92785C22.1036 3.56944 22 3.17345 22 2.74995C22 1.23381 23.2338 0 24.75 0C26.2662 0 27.5 1.23381 27.5 2.74995C27.5 4.2661 26.2662 5.49991 24.75 5.49991C24.3265 5.49991 23.9305 5.39633 23.5721 5.224L14.6667 14.1293V22.9163C14.6667 23.1601 14.5704 23.3929 14.3981 23.5644L12.5574 25.405C12.7298 25.7634 12.8333 26.1594 12.8333 26.5829C12.8333 28.099 11.5995 29.3328 10.0833 29.3328C8.56717 29.3328 7.33334 28.099 7.33334 26.5829C7.33334 25.0667 8.56717 23.8329 10.0833 23.8329ZM24.75 3.66661C25.2551 3.66661 25.6667 3.25595 25.6667 2.74995C25.6667 2.24396 25.2551 1.8333 24.75 1.8333C24.2449 1.8333 23.8333 2.24396 23.8333 2.74995C23.8333 3.25595 24.2449 3.66661 24.75 3.66661ZM10.0833 27.4995C10.5884 27.4995 11 27.0889 11 26.5829C11 26.0769 10.5884 25.6662 10.0833 25.6662C9.57826 25.6662 9.16668 26.0769 9.16668 26.5829C9.16668 27.0889 9.57826 27.4995 10.0833 27.4995Z" fill="#00B2FF"/>
<path d="M1.83336 13.0018V9.16651C1.83336 8.92268 1.92961 8.68986 2.10195 8.51844L8.51861 2.10188C8.69003 1.92955 8.92378 1.8333 9.1667 1.8333H13.9187C14.2982 0.769071 15.3065 0 16.5 0C18.0162 0 19.25 1.23381 19.25 2.74995C19.25 4.2661 18.0162 5.49991 16.5 5.49991C15.3065 5.49991 14.2982 4.73084 13.9187 3.66661H9.5462L3.6667 9.54601V13.0018C4.73095 13.3813 5.50003 14.3896 5.50003 15.5831C5.50003 17.0992 4.2662 18.333 2.75003 18.333C1.23386 18.333 3.05176e-05 17.0992 3.05176e-05 15.5831C3.05176e-05 14.3896 0.769114 13.3813 1.83336 13.0018ZM16.5 3.66661C17.0051 3.66661 17.4167 3.25595 17.4167 2.74995C17.4167 2.24396 17.0051 1.8333 16.5 1.8333C15.9949 1.8333 15.5834 2.24396 15.5834 2.74995C15.5834 3.25595 15.9949 3.66661 16.5 3.66661ZM2.75003 16.4997C3.25511 16.4997 3.6667 16.0891 3.6667 15.5831C3.6667 15.0771 3.25511 14.6664 2.75003 14.6664C2.24495 14.6664 1.83336 15.0771 1.83336 15.5831C1.83336 16.0891 2.24495 16.4997 2.75003 16.4997Z" fill="#00B2FF"/>
<path d="M14.6658 49.6688V36.4974C13.6024 36.1179 12.8334 35.1096 12.8334 33.9161C12.8334 32.4 14.0672 31.1662 15.5834 31.1662C16.7769 31.1662 17.7852 31.9352 18.1647 32.9995H27.6687C28.0482 31.9352 29.0565 31.1662 30.25 31.1662C31.4435 31.1662 32.4519 31.9352 32.8314 32.9995H38.1205L41.5259 29.5941C41.3536 29.2357 41.25 28.8397 41.25 28.4162C41.25 26.9001 42.4839 25.6663 44 25.6663C45.5162 25.6663 46.75 26.9001 46.75 28.4162C46.75 29.9324 45.5162 31.1662 44 31.1662C43.5765 31.1662 43.1805 31.0626 42.8221 30.8903L39.1481 34.5642C38.9767 34.7365 38.7429 34.8328 38.5 34.8328H32.8314C32.4519 35.897 31.4435 36.6661 30.25 36.6661C29.0565 36.6661 28.0482 35.897 27.6687 34.8328H18.1638C17.8869 35.6092 17.2755 36.2206 16.4991 36.4974V49.6688C17.5634 50.0483 18.3324 51.0566 18.3324 52.2501C18.3324 53.7662 17.0986 55 15.5824 55C14.0663 55 12.8324 53.7662 12.8324 52.2501C12.8324 51.0566 13.6015 50.0483 14.6658 49.6688ZM44 29.3329C44.5051 29.3329 44.9167 28.9222 44.9167 28.4162C44.9167 27.9102 44.5051 27.4996 44 27.4996C43.4949 27.4996 43.0834 27.9102 43.0834 28.4162C43.0834 28.9222 43.4949 29.3329 44 29.3329ZM30.25 34.8328C30.7551 34.8328 31.1667 34.4221 31.1667 33.9161C31.1667 33.4101 30.7551 32.9995 30.25 32.9995C29.7449 32.9995 29.3334 33.4101 29.3334 33.9161C29.3334 34.4221 29.7449 34.8328 30.25 34.8328ZM15.5834 53.1658C16.0884 53.1658 16.5 52.7551 16.5 52.2492C16.5 51.7432 16.0884 51.3325 15.5834 51.3325C15.0783 51.3325 14.6667 51.7432 14.6667 52.2492C14.6667 52.7551 15.0783 53.1658 15.5834 53.1658ZM15.5834 34.8328C16.0884 34.8328 16.5 34.4221 16.5 33.9161C16.5 33.4101 16.0884 32.9995 15.5834 32.9995C15.0783 32.9995 14.6667 33.4101 14.6667 33.9161C14.6667 34.4221 15.0783 34.8328 15.5834 34.8328Z" fill="#00B2FF"/>
<path d="M19.25 18.5017V15.5831C19.25 15.3392 19.3463 15.1064 19.5186 14.935L30.5259 3.92785C30.3536 3.56944 30.25 3.17345 30.25 2.74995C30.25 1.23381 31.4838 0 33 0C34.1935 0 35.2018 0.769071 35.5813 1.8333H39.4167C39.9227 1.8333 40.3333 2.24305 40.3333 2.74995V5.12041L43.7388 8.52577C44.0972 8.35344 44.4932 8.24986 44.9167 8.24986C46.4328 8.24986 47.6667 9.48368 47.6667 10.9998C47.6667 12.516 46.4328 13.7498 44.9167 13.7498C43.4005 13.7498 42.1667 12.516 42.1667 10.9998C42.1667 10.5763 42.2703 10.1803 42.4426 9.82192L38.7686 6.14798C38.5963 5.97657 38.5 5.74374 38.5 5.49991V3.66661H35.5813C35.2018 4.73084 34.1935 5.49991 33 5.49991C32.5765 5.49991 32.1805 5.39633 31.8221 5.224L21.0833 15.9626V18.5017C22.1476 18.8812 22.9167 19.8895 22.9167 21.083C22.9167 22.5991 21.6828 23.8329 20.1667 23.8329C18.6505 23.8329 17.4167 22.5991 17.4167 21.083C17.4167 19.8895 18.1858 18.8812 19.25 18.5017ZM44.9167 11.9165C45.4218 11.9165 45.8333 11.5058 45.8333 10.9998C45.8333 10.4938 45.4218 10.0832 44.9167 10.0832C44.4116 10.0832 44 10.4938 44 10.9998C44 11.5058 44.4116 11.9165 44.9167 11.9165ZM33 3.66661C33.5051 3.66661 33.9167 3.25595 33.9167 2.74995C33.9167 2.24396 33.5051 1.8333 33 1.8333C32.4949 1.8333 32.0833 2.24396 32.0833 2.74995C32.0833 3.25595 32.4949 3.66661 33 3.66661ZM20.1667 21.9996C20.6718 21.9996 21.0833 21.589 21.0833 21.083C21.0833 20.577 20.6718 20.1663 20.1667 20.1663C19.6616 20.1663 19.25 20.577 19.25 21.083C19.25 21.589 19.6616 21.9996 20.1667 21.9996Z" fill="#00B2FF"/>
<path d="M22 25.6662C23.1935 25.6662 24.2018 26.4353 24.5813 27.4995H35.3705L40.6019 22.2682C40.7733 22.0959 41.0071 21.9996 41.25 21.9996H50.9538L53.1667 19.7868V12.296L46.0946 5.224C45.7362 5.39633 45.3402 5.49991 44.9167 5.49991C43.4005 5.49991 42.1667 4.2661 42.1667 2.74995C42.1667 1.23381 43.4005 0 44.9167 0C46.4328 0 47.6667 1.23381 47.6667 2.74995C47.6667 3.17345 47.5631 3.56944 47.3907 3.92785L54.7314 11.2684C54.9037 11.4398 55 11.6726 55 11.9165V20.1663C55 20.4102 54.9037 20.643 54.7314 20.8144L51.9814 23.5644C51.81 23.7367 51.5762 23.8329 51.3333 23.8329H41.6295L36.3981 29.0643C36.2267 29.2366 35.9929 29.3328 35.75 29.3328H24.5813C24.2018 30.3971 23.1935 31.1661 22 31.1661C20.4838 31.1661 19.25 29.9323 19.25 28.4162C19.25 26.9001 20.4838 25.6662 22 25.6662ZM44.9167 1.8333C44.4116 1.8333 44 2.24396 44 2.74995C44 3.25595 44.4116 3.66661 44.9167 3.66661C45.4217 3.66661 45.8333 3.25595 45.8333 2.74995C45.8333 2.24396 45.4217 1.8333 44.9167 1.8333ZM22 29.3328C22.5051 29.3328 22.9167 28.9222 22.9167 28.4162C22.9167 27.9102 22.5051 27.4995 22 27.4995C21.4949 27.4995 21.0833 27.9102 21.0833 28.4162C21.0833 28.9222 21.4949 29.3328 22 29.3328Z" fill="#00B2FF"/>
<path d="M2.75001 21.9996C3.17351 21.9996 3.56951 22.1032 3.92793 22.2755L7.33334 18.8702V13.5811C6.26909 13.2016 5.50001 12.1933 5.50001 10.9998C5.50001 9.48368 6.73384 8.24986 8.25001 8.24986C9.76618 8.24986 11 9.48368 11 10.9998C11 12.1933 10.2309 13.2016 9.16668 13.5811V19.2497C9.16668 19.4935 9.07043 19.7263 8.89809 19.8978L5.2241 23.5717C5.39643 23.9301 5.50001 24.3261 5.50001 24.7496C5.50001 25.9431 4.73093 26.9514 3.66668 27.3309V28.0367L10.7314 35.1013C10.9038 35.2727 11 35.5056 11 35.7494V36.8347C12.0643 37.2142 12.8333 38.2225 12.8333 39.416C12.8333 40.6095 12.0643 41.6178 11 41.9973V44.1688C12.0643 44.5483 12.8333 45.5567 12.8333 46.7501C12.8333 48.2663 11.5995 49.5001 10.0833 49.5001C8.56718 49.5001 7.33334 48.2663 7.33334 46.7501C7.33334 45.5567 8.10243 44.5483 9.16668 44.1688V41.9973C8.10243 41.6178 7.33334 40.6095 7.33334 39.416C7.33334 38.2225 8.10243 37.2142 9.16668 36.8347V36.1289L2.10193 29.0643C1.92959 28.8929 1.83334 28.66 1.83334 28.4162V27.3309C0.769094 26.9514 1.14441e-05 25.9431 1.14441e-05 24.7496C1.14441e-05 23.2334 1.23384 21.9996 2.75001 21.9996ZM8.25001 11.9165C8.75509 11.9165 9.16668 11.5058 9.16668 10.9998C9.16668 10.4938 8.75509 10.0832 8.25001 10.0832C7.74493 10.0832 7.33334 10.4938 7.33334 10.9998C7.33334 11.5058 7.74493 11.9165 8.25001 11.9165ZM10.0833 47.6659C10.5884 47.6659 11 47.2552 11 46.7492C11 46.2432 10.5884 45.8326 10.0833 45.8326C9.57826 45.8326 9.16668 46.2432 9.16668 46.7492C9.16668 47.2552 9.57826 47.6659 10.0833 47.6659ZM10.0833 40.3327C10.5884 40.3327 11 39.922 11 39.416C11 38.91 10.5884 38.4994 10.0833 38.4994C9.57826 38.4994 9.16668 38.91 9.16668 39.416C9.16668 39.922 9.57826 40.3327 10.0833 40.3327ZM2.75001 25.6662C3.25509 25.6662 3.66668 25.2556 3.66668 24.7496C3.66668 24.2436 3.25509 23.8329 2.75001 23.8329C2.24493 23.8329 1.83334 24.2436 1.83334 24.7496C1.83334 25.2556 2.24493 25.6662 2.75001 25.6662Z" fill="#00B2FF"/>
</g></symbol><symbol id="phone-icon" viewBox="0 0 20 20"><g fill="none">
<path d="M15.8147 12.3893C15.4047 11.9629 14.9101 11.735 14.3859 11.735C13.866 11.735 13.3672 11.9587 12.9402 12.3851L11.6044 13.7147C11.4945 13.6556 11.3846 13.6007 11.2789 13.5459C11.1267 13.4699 10.983 13.3981 10.8604 13.3222C9.6091 12.5286 8.47196 11.4944 7.38132 10.1563C6.85291 9.48936 6.49782 8.92795 6.23995 8.35809C6.58659 8.04151 6.90786 7.71226 7.22068 7.39567C7.33905 7.27748 7.45741 7.15507 7.57578 7.03688C8.4635 6.15044 8.4635 5.00229 7.57578 4.11585L6.42173 2.96348C6.29068 2.83262 6.15541 2.69755 6.02859 2.56247C5.77495 2.30076 5.50863 2.03061 5.23386 1.77734C4.82381 1.37211 4.33345 1.15683 3.81772 1.15683C3.30199 1.15683 2.80317 1.37211 2.38045 1.77734C2.37622 1.78156 2.37622 1.78156 2.37199 1.78578L0.934715 3.23363C0.393623 3.77394 0.0850312 4.43243 0.0173946 5.19646C-0.0840601 6.42903 0.279486 7.57718 0.558487 8.32854C1.24331 10.1732 2.26631 11.8827 3.79236 13.7147C5.64391 15.9224 7.87168 17.6657 10.4165 18.8941C11.3888 19.3542 12.6866 19.8987 14.1365 19.9916C14.2253 19.9958 14.3183 20 14.4028 20C15.3793 20 16.1994 19.6496 16.842 18.9532C16.8462 18.9447 16.8547 18.9405 16.8589 18.932C17.0787 18.6661 17.3323 18.4255 17.5987 18.168C17.7804 17.995 17.9664 17.8134 18.1482 17.6235C18.5667 17.1887 18.7865 16.6822 18.7865 16.163C18.7865 15.6396 18.5625 15.1372 18.1355 14.7151L15.8147 12.3893ZM17.3281 16.8341C17.3239 16.8341 17.3239 16.8384 17.3281 16.8341C17.1633 17.0114 16.9942 17.1718 16.8124 17.3491C16.5376 17.6108 16.2586 17.8852 15.9965 18.1933C15.5696 18.6492 15.0665 18.8645 14.4071 18.8645C14.3437 18.8645 14.276 18.8645 14.2126 18.8603C12.9571 18.7801 11.7904 18.2904 10.9153 17.8725C8.52269 16.7159 6.42173 15.0739 4.67586 12.9929C3.23436 11.258 2.27054 9.65398 1.63222 7.93176C1.23908 6.88069 1.09535 6.06179 1.15876 5.28932C1.20103 4.79545 1.39126 4.386 1.74213 4.03565L3.18363 2.59624C3.39077 2.40207 3.61058 2.29654 3.82618 2.29654C4.09249 2.29654 4.30809 2.45694 4.44336 2.59202C4.44759 2.59624 4.45181 2.60046 4.45604 2.60468C4.7139 2.84529 4.95909 3.09433 5.21695 3.36026C5.348 3.49534 5.48327 3.63042 5.61854 3.76971L6.77259 4.92209C7.22068 5.36953 7.22068 5.7832 6.77259 6.23064C6.65 6.35305 6.53164 6.47546 6.40905 6.59366C6.05395 6.95667 5.71577 7.29437 5.348 7.62361C5.33954 7.63206 5.33109 7.63628 5.32686 7.64472C4.96332 8.00774 5.03095 8.36231 5.10704 8.60292C5.11127 8.61558 5.1155 8.62824 5.11972 8.64091C5.41986 9.36694 5.84259 10.0508 6.48514 10.8654L6.48936 10.8697C7.65609 12.3049 8.88623 13.4235 10.2432 14.2803C10.4165 14.3901 10.5941 14.4787 10.7631 14.5632C10.9153 14.6391 11.0591 14.7109 11.1816 14.7869C11.1986 14.7953 11.2155 14.808 11.2324 14.8164C11.3761 14.8882 11.5114 14.922 11.6509 14.922C12.0017 14.922 12.2216 14.7025 12.2934 14.6307L13.7392 13.1871C13.8829 13.0436 14.1112 12.8705 14.3775 12.8705C14.6396 12.8705 14.8552 13.0351 14.9862 13.1786C14.9904 13.1829 14.9904 13.1829 14.9947 13.1871L17.3239 15.5129C17.7593 15.9435 17.7593 16.3867 17.3281 16.8341Z" fill="#00B2FF"/>
<path d="M10.8096 4.75747C11.9171 4.9432 12.9232 5.46662 13.7264 6.26863C14.5296 7.07065 15.0496 8.07528 15.2398 9.18122C15.2863 9.45981 15.5272 9.65399 15.802 9.65399C15.8358 9.65399 15.8654 9.64977 15.8992 9.64554C16.2121 9.59489 16.4192 9.29941 16.3685 8.98705C16.1402 7.64895 15.5061 6.42904 14.5381 5.4624C13.57 4.49576 12.3483 3.86258 11.0083 3.63464C10.6955 3.58399 10.4038 3.79083 10.3488 4.09897C10.2939 4.40711 10.4968 4.70681 10.8096 4.75747Z" fill="#00B2FF"/>
<path d="M19.9914 8.82242C19.6152 6.61899 18.5752 4.61395 16.9773 3.01836C15.3794 1.42277 13.3715 0.384369 11.1648 0.00868773C10.8562 -0.0461871 10.5645 0.16487 10.5096 0.473013C10.4589 0.785377 10.666 1.07664 10.9788 1.13151C12.9487 1.46498 14.7453 2.39785 16.1741 3.82038C17.603 5.24712 18.533 7.0411 18.8669 9.00815C18.9134 9.28675 19.1544 9.48092 19.4292 9.48092C19.463 9.48092 19.4926 9.4767 19.5264 9.47248C19.835 9.42605 20.0463 9.13057 19.9914 8.82242Z" fill="#00B2FF"/>
</g></symbol></svg>